<svg xmlns="http://www.w3.org/2000/svg" viewBox="0 0 900 180" preserveAspectRatio="xMaxYMid meet" role="img" aria-labelledby="title-a6f20ddb desc-a6f20ddb">
  <title id="title-a6f20ddb">A Cognitive Pattern Language for Tonal Music Representation — peer-review visual strip</title>
  <desc id="desc-a6f20ddb">Concentric pitch-class rings and repeated tonal grammar modules.</desc>

  <defs>
    <linearGradient id="fade-a6f20ddb" x1="0" x2="1"><stop offset="0%" stop-color="#A78BFA" stop-opacity="0"/><stop offset="36%" stop-color="#A78BFA" stop-opacity=".06"/><stop offset="100%" stop-color="#56D8FF" stop-opacity=".24"/></linearGradient>
    <radialGradient id="glow-a6f20ddb" cx="76%" cy="50%" r="60%"><stop offset="0%" stop-color="#56D8FF" stop-opacity=".28"/><stop offset="55%" stop-color="#A78BFA" stop-opacity=".08"/><stop offset="100%" stop-color="#A78BFA" stop-opacity="0"/></radialGradient>
    <filter id="soft-a6f20ddb" x="-30%" y="-50%" width="160%" height="200%"><feGaussianBlur stdDeviation="2.1" result="blur"/><feMerge><feMergeNode in="blur"/><feMergeNode in="SourceGraphic"/></feMerge></filter>
    <pattern id="grid-a6f20ddb" width="24" height="24" patternUnits="userSpaceOnUse"><path d="M24 0H0V24" fill="none" stroke="#A78BFA" stroke-opacity=".11" stroke-width="1"/></pattern>
    <pattern id="dots-a6f20ddb" width="18" height="18" patternUnits="userSpaceOnUse"><circle cx="1.2" cy="1.2" r="1.2" fill="#56D8FF" opacity=".22"/></pattern>
    <marker id="arrow-a6f20ddb" viewBox="0 0 8 8" refX="7" refY="4" markerWidth="6" markerHeight="6" orient="auto"><path d="M0 0L8 4L0 8Z" fill="#56D8FF" opacity=".75"/></marker>
  </defs>

  <rect x="470" y="18" width="390" height="144" fill="url(#dots-a6f20ddb)" opacity=".28"/>
  <rect x="500" y="26" width="340" height="126" fill="url(#grid-a6f20ddb)" opacity=".18"/>
  <ellipse cx="710" cy="90" rx="186" ry="72" fill="url(#glow-a6f20ddb)" opacity=".9"/>
  <path d="M330 160H900V20C794 40 722 24 644 42C554 63 472 50 330 78Z" fill="url(#fade-a6f20ddb)" opacity=".35"/>
  <g>
    <circle cx="710" cy="90" r="68" fill="none" stroke="#A78BFA" stroke-opacity=".65"/>
    <circle cx="710" cy="90" r="42" fill="none" stroke="#56D8FF" stroke-opacity=".52" stroke-dasharray="5 7"/>
    <path d="M658 64A60 60 0 0 1 762 64M658 116A60 60 0 0 0 762 116" fill="none" stroke="#56D8FF" stroke-width="1.5" stroke-linecap="round"/>
    <g fill="#56D8FF">
      <circle cx="710" cy="22" r="4" opacity=".5"/><circle cx="744" cy="31" r="4" opacity=".68"/>
      <circle cx="769" cy="56" r="4" opacity=".82"/><circle cx="778" cy="90" r="4" opacity=".62"/>
      <circle cx="769" cy="124" r="4" opacity=".5"/><circle cx="744" cy="149" r="4" opacity=".68"/>
      <circle cx="710" cy="158" r="4" opacity=".82"/><circle cx="676" cy="149" r="4" opacity=".62"/>
      <circle cx="651" cy="124" r="4" opacity=".5"/><circle cx="642" cy="90" r="4" opacity=".68"/>
      <circle cx="651" cy="56" r="4" opacity=".82"/><circle cx="676" cy="31" r="4" opacity=".62"/>
    </g>
    <circle cx="710" cy="90" r="7" fill="#A78BFA" opacity=".72"/>
    <g fill="none" stroke="#A78BFA" stroke-opacity=".35"><rect x="488" y="48" width="78" height="18" rx="5"/><rect x="488" y="78" width="106" height="18" rx="5"/><rect x="488" y="108" width="90" height="18" rx="5"/></g>
  </g>
</svg>
