<svg xmlns="http://www.w3.org/2000/svg" viewBox="0 0 900 180" preserveAspectRatio="xMaxYMid meet" role="img" aria-labelledby="title-d3224052 desc-d3224052">
  <title id="title-d3224052">Analyzing digital strategy research: a bibliometric study — peer-review visual strip</title>
  <desc id="desc-d3224052">A citation network, publication bars, and strategic research clusters.</desc>

  <defs>
    <linearGradient id="fade-d3224052" x1="0" x2="1"><stop offset="0%" stop-color="#56D8FF" stop-opacity="0"/><stop offset="36%" stop-color="#56D8FF" stop-opacity=".06"/><stop offset="100%" stop-color="#34D399" stop-opacity=".24"/></linearGradient>
    <radialGradient id="glow-d3224052" cx="76%" cy="50%" r="60%"><stop offset="0%" stop-color="#34D399" stop-opacity=".28"/><stop offset="55%" stop-color="#56D8FF" stop-opacity=".08"/><stop offset="100%" stop-color="#56D8FF" stop-opacity="0"/></radialGradient>
    <filter id="soft-d3224052" x="-30%" y="-50%" width="160%" height="200%"><feGaussianBlur stdDeviation="2.1" result="blur"/><feMerge><feMergeNode in="blur"/><feMergeNode in="SourceGraphic"/></feMerge></filter>
    <pattern id="grid-d3224052" width="24" height="24" patternUnits="userSpaceOnUse"><path d="M24 0H0V24" fill="none" stroke="#56D8FF" stroke-opacity=".11" stroke-width="1"/></pattern>
    <pattern id="dots-d3224052" width="18" height="18" patternUnits="userSpaceOnUse"><circle cx="1.2" cy="1.2" r="1.2" fill="#34D399" opacity=".22"/></pattern>
    <marker id="arrow-d3224052" viewBox="0 0 8 8" refX="7" refY="4" markerWidth="6" markerHeight="6" orient="auto"><path d="M0 0L8 4L0 8Z" fill="#34D399" opacity=".75"/></marker>
  </defs>

  <rect x="470" y="18" width="390" height="144" fill="url(#dots-d3224052)" opacity=".28"/>
  <rect x="500" y="26" width="340" height="126" fill="url(#grid-d3224052)" opacity=".18"/>
  <ellipse cx="710" cy="90" rx="186" ry="72" fill="url(#glow-d3224052)" opacity=".9"/>
  <path d="M330 160H900V20C794 40 722 24 644 42C554 63 472 50 330 78Z" fill="url(#fade-d3224052)" opacity=".35"/>
  <g><rect x="484" y="114" width="10" height="18" rx="3" fill="#56D8FF" opacity=".38"/><rect x="502" y="105" width="10" height="27" rx="3" fill="#56D8FF" opacity=".44"/><rect x="520" y="96" width="10" height="36" rx="3" fill="#56D8FF" opacity=".50"/><rect x="538" y="87" width="10" height="45" rx="3" fill="#56D8FF" opacity=".56"/><rect x="556" y="78" width="10" height="54" rx="3" fill="#56D8FF" opacity=".62"/><rect x="574" y="69" width="10" height="63" rx="3" fill="#56D8FF" opacity=".68"/><rect x="592" y="60" width="10" height="72" rx="3" fill="#56D8FF" opacity=".74"/><g stroke="#34D399" stroke-opacity=".38"><path d="M711 134L733 93"/><path d="M733 93L695 37"/><path d="M695 37L697 114"/><path d="M697 114L743 82"/><path d="M743 82L652 137"/><path d="M652 137L735 93"/><path d="M735 93L695 90"/><path d="M695 90L645 57"/><path d="M645 57L654 44"/><path d="M654 44L701 66"/><path d="M701 66L711 134"/></g><g fill="#34D399"><circle cx="711" cy="134" r="3"/><circle cx="733" cy="93" r="4"/><circle cx="695" cy="37" r="5"/><circle cx="697" cy="114" r="3"/><circle cx="743" cy="82" r="4"/><circle cx="652" cy="137" r="5"/><circle cx="735" cy="93" r="3"/><circle cx="695" cy="90" r="4"/><circle cx="645" cy="57" r="5"/><circle cx="654" cy="44" r="3"/><circle cx="701" cy="66" r="4"/></g></g>
</svg>
