<svg xmlns="http://www.w3.org/2000/svg" viewBox="0 0 900 180" preserveAspectRatio="xMaxYMid meet" role="img" aria-labelledby="title-e135fbcc desc-e135fbcc">
  <title id="title-e135fbcc">The Cognitive Dynamics of Advertising — peer-review visual strip</title>
  <desc id="desc-e135fbcc">An audiovisual advert passing through attention, memory, and decision stages.</desc>

  <defs>
    <linearGradient id="fade-e135fbcc" x1="0" x2="1"><stop offset="0%" stop-color="#A78BFA" stop-opacity="0"/><stop offset="36%" stop-color="#A78BFA" stop-opacity=".06"/><stop offset="100%" stop-color="#56D8FF" stop-opacity=".24"/></linearGradient>
    <radialGradient id="glow-e135fbcc" cx="76%" cy="50%" r="60%"><stop offset="0%" stop-color="#56D8FF" stop-opacity=".28"/><stop offset="55%" stop-color="#A78BFA" stop-opacity=".08"/><stop offset="100%" stop-color="#A78BFA" stop-opacity="0"/></radialGradient>
    <filter id="soft-e135fbcc" x="-30%" y="-50%" width="160%" height="200%"><feGaussianBlur stdDeviation="2.1" result="blur"/><feMerge><feMergeNode in="blur"/><feMergeNode in="SourceGraphic"/></feMerge></filter>
    <pattern id="grid-e135fbcc" width="24" height="24" patternUnits="userSpaceOnUse"><path d="M24 0H0V24" fill="none" stroke="#A78BFA" stroke-opacity=".11" stroke-width="1"/></pattern>
    <pattern id="dots-e135fbcc" width="18" height="18" patternUnits="userSpaceOnUse"><circle cx="1.2" cy="1.2" r="1.2" fill="#56D8FF" opacity=".22"/></pattern>
    <marker id="arrow-e135fbcc" viewBox="0 0 8 8" refX="7" refY="4" markerWidth="6" markerHeight="6" orient="auto"><path d="M0 0L8 4L0 8Z" fill="#56D8FF" opacity=".75"/></marker>
  </defs>

  <rect x="470" y="18" width="390" height="144" fill="url(#dots-e135fbcc)" opacity=".28"/>
  <rect x="500" y="26" width="340" height="126" fill="url(#grid-e135fbcc)" opacity=".18"/>
  <ellipse cx="710" cy="90" rx="186" ry="72" fill="url(#glow-e135fbcc)" opacity=".9"/>
  <path d="M330 160H900V20C794 40 722 24 644 42C554 63 472 50 330 78Z" fill="url(#fade-e135fbcc)" opacity=".35"/>
  <g><rect x="488" y="42" width="132" height="90" rx="12" fill="none" stroke="#A78BFA"/><path d="M536 66l38 22-38 22Z" fill="#56D8FF" opacity=".65"/><path d="M620 86H672" stroke="#56D8FF" marker-end="url(#arrow-e135fbcc)"/><g fill="none" stroke="#A78BFA"><circle cx="706" cy="58" r="20"/><circle cx="780" cy="90" r="20"/><circle cx="712" cy="132" r="20"/></g><path d="M724 62L760 82M760 102L730 124" stroke="#56D8FF" marker-end="url(#arrow-e135fbcc)"/><path d="M814 42v96" stroke="#56D8FF" stroke-dasharray="4 6"/></g>
</svg>
