<svg xmlns="http://www.w3.org/2000/svg" viewBox="0 0 900 180" preserveAspectRatio="xMaxYMid meet" role="img" aria-labelledby="title-880a806c desc-880a806c">
  <title id="title-880a806c">Aurally enhanced media promotion: Music and sound in Greek television commercials — peer-review visual strip</title>
  <desc id="desc-880a806c">A television frame with music, sound, and audience-attention pulses.</desc>

  <defs>
    <linearGradient id="fade-880a806c" x1="0" x2="1"><stop offset="0%" stop-color="#56D8FF" stop-opacity="0"/><stop offset="36%" stop-color="#56D8FF" stop-opacity=".06"/><stop offset="100%" stop-color="#34D399" stop-opacity=".24"/></linearGradient>
    <radialGradient id="glow-880a806c" cx="76%" cy="50%" r="60%"><stop offset="0%" stop-color="#34D399" stop-opacity=".28"/><stop offset="55%" stop-color="#56D8FF" stop-opacity=".08"/><stop offset="100%" stop-color="#56D8FF" stop-opacity="0"/></radialGradient>
    <filter id="soft-880a806c" x="-30%" y="-50%" width="160%" height="200%"><feGaussianBlur stdDeviation="2.1" result="blur"/><feMerge><feMergeNode in="blur"/><feMergeNode in="SourceGraphic"/></feMerge></filter>
    <pattern id="grid-880a806c" width="24" height="24" patternUnits="userSpaceOnUse"><path d="M24 0H0V24" fill="none" stroke="#56D8FF" stroke-opacity=".11" stroke-width="1"/></pattern>
    <pattern id="dots-880a806c" width="18" height="18" patternUnits="userSpaceOnUse"><circle cx="1.2" cy="1.2" r="1.2" fill="#34D399" opacity=".22"/></pattern>
    <marker id="arrow-880a806c" viewBox="0 0 8 8" refX="7" refY="4" markerWidth="6" markerHeight="6" orient="auto"><path d="M0 0L8 4L0 8Z" fill="#34D399" opacity=".75"/></marker>
  </defs>

  <rect x="470" y="18" width="390" height="144" fill="url(#dots-880a806c)" opacity=".28"/>
  <rect x="500" y="26" width="340" height="126" fill="url(#grid-880a806c)" opacity=".18"/>
  <ellipse cx="710" cy="90" rx="186" ry="72" fill="url(#glow-880a806c)" opacity=".9"/>
  <path d="M330 160H900V20C794 40 722 24 644 42C554 63 472 50 330 78Z" fill="url(#fade-880a806c)" opacity=".35"/>
  <g><rect x="520" y="34" width="190" height="116" rx="14" fill="none" stroke="#56D8FF"/><path d="M594 150l-18 14M636 150l18 14" stroke="#56D8FF"/><path d="M544 102C568 68 592 130 616 96S664 72 688 104" fill="none" stroke="#34D399" stroke-width="2.2"/><path d="M724 58C770 42 812 54 844 82M724 84C774 74 814 88 846 116M724 112C770 112 808 124 832 142" fill="none" stroke="#34D399" opacity=".65"/></g>
</svg>
