<svg xmlns="http://www.w3.org/2000/svg" viewBox="0 0 900 180" preserveAspectRatio="xMaxYMid meet" role="img" aria-labelledby="title desc">
  <title id="title">Keyboard as a Stimulator in Timbre Recognition Training â€” visual strip</title>
  <desc id="desc">keyboard stimulus, timbre recognition pulses</desc>

  <defs>
    <linearGradient id="fade" x1="0" x2="1">
      <stop offset="0%" stop-color="#34D399" stop-opacity="0"/>
      <stop offset="34%" stop-color="#34D399" stop-opacity=".08"/>
      <stop offset="100%" stop-color="#FFB347" stop-opacity=".22"/>
    </linearGradient>
    <radialGradient id="glow" cx="72%" cy="50%" r="62%">
      <stop offset="0%" stop-color="#FFB347" stop-opacity=".30"/>
      <stop offset="58%" stop-color="#34D399" stop-opacity=".08"/>
      <stop offset="100%" stop-color="#34D399" stop-opacity="0"/>
    </radialGradient>
    <filter id="softGlow" x="-20%" y="-40%" width="140%" height="180%">
      <feGaussianBlur stdDeviation="2.2" result="blur"/>
      <feMerge><feMergeNode in="blur"/><feMergeNode in="SourceGraphic"/></feMerge>
    </filter>
    <pattern id="dots" width="18" height="18" patternUnits="userSpaceOnUse">
      <circle cx="1.2" cy="1.2" r="1.2" fill="#FFB347" opacity=".23"/>
    </pattern>
    <pattern id="grid" width="26" height="26" patternUnits="userSpaceOnUse">
      <path d="M26 0H0V26" fill="none" stroke="#FFB347" stroke-opacity=".11" stroke-width="1"/>
    </pattern>
  </defs>
  <rect x="530" y="18" width="310" height="144" fill="url(#dots)" opacity=".22"/>
<rect x="458" y="102" width="19" height="44" rx="3" fill="#FFB347" opacity="0.22"/>
<rect x="482" y="102" width="19" height="44" rx="3" fill="#FFB347" opacity="0.26"/>
<rect x="494" y="102" width="10" height="26" rx="2" fill="#34D399" opacity=".34"/>
<rect x="506" y="102" width="19" height="44" rx="3" fill="#FFB347" opacity="0.30"/>
<rect x="530" y="102" width="19" height="44" rx="3" fill="#FFB347" opacity="0.34"/>
<rect x="554" y="102" width="19" height="44" rx="3" fill="#FFB347" opacity="0.22"/>
<rect x="566" y="102" width="10" height="26" rx="2" fill="#34D399" opacity=".34"/>
<rect x="578" y="102" width="19" height="44" rx="3" fill="#FFB347" opacity="0.26"/>
<rect x="602" y="102" width="19" height="44" rx="3" fill="#FFB347" opacity="0.30"/>
<rect x="626" y="102" width="19" height="44" rx="3" fill="#FFB347" opacity="0.34"/>
<rect x="638" y="102" width="10" height="26" rx="2" fill="#34D399" opacity=".34"/>
<rect x="650" y="102" width="19" height="44" rx="3" fill="#FFB347" opacity="0.22"/>
<rect x="674" y="102" width="19" height="44" rx="3" fill="#FFB347" opacity="0.26"/>
<rect x="698" y="102" width="19" height="44" rx="3" fill="#FFB347" opacity="0.30"/>
<rect x="710" y="102" width="10" height="26" rx="2" fill="#34D399" opacity=".34"/>
<rect x="722" y="102" width="19" height="44" rx="3" fill="#FFB347" opacity="0.34"/>
<rect x="746" y="102" width="19" height="44" rx="3" fill="#FFB347" opacity="0.22"/>
<rect x="770" y="102" width="19" height="44" rx="3" fill="#FFB347" opacity="0.26"/>
<rect x="782" y="102" width="10" height="26" rx="2" fill="#34D399" opacity=".34"/>
<g fill="#FFB347" filter="url(#softGlow)"><circle cx="520" cy="72" r="4"/><circle cx="614" cy="58" r="4"/><circle cx="728" cy="70" r="4"/></g><g stroke="#34D399" fill="none" opacity=".46"><path d="M470 72C560 40 650 40 780 76"/></g>
</svg>


