<svg xmlns="http://www.w3.org/2000/svg" viewBox="0 0 760 180" role="img" aria-label="Abstract network, audio wave, and perceptual learning motif">
  <defs>
    <linearGradient id="line-cyan" x1="0" y1="0" x2="1" y2="0">
      <stop offset="0" stop-color="#67e8f9" stop-opacity="0"/>
      <stop offset="0.28" stop-color="#67e8f9" stop-opacity="0.8"/>
      <stop offset="0.62" stop-color="#a78bfa" stop-opacity="0.72"/>
      <stop offset="1" stop-color="#fbbf24" stop-opacity="0"/>
    </linearGradient>
    <radialGradient id="node-glow" cx="50%" cy="50%" r="50%">
      <stop offset="0" stop-color="#67e8f9" stop-opacity="0.95"/>
      <stop offset="0.42" stop-color="#67e8f9" stop-opacity="0.36"/>
      <stop offset="1" stop-color="#67e8f9" stop-opacity="0"/>
    </radialGradient>
    <filter id="soft-glow" x="-40%" y="-60%" width="180%" height="220%">
      <feGaussianBlur stdDeviation="3.5" result="blur"/>
      <feMerge>
        <feMergeNode in="blur"/>
        <feMergeNode in="SourceGraphic"/>
      </feMerge>
    </filter>
  </defs>
  <g fill="none" opacity="0.34" stroke="#67e8f9" stroke-width="1">
    <path d="M442 33h46v46h-46z"/>
    <path d="M504 33h46v46h-46z"/>
    <path d="M566 33h46v46h-46z"/>
    <path d="M442 94h46v46h-46z"/>
    <path d="M504 94h46v46h-46z"/>
    <path d="M566 94h46v46h-46z"/>
  </g>
  <g opacity="0.4" stroke="#a78bfa" stroke-width="1">
    <path d="M466 56 529 117 590 56 466 56Z" fill="none"/>
    <path d="M466 117 529 56 590 117 466 117Z" fill="none"/>
    <path d="M529 56v61M466 56v61M590 56v61" fill="none"/>
  </g>
  <path d="M38 105 C 98 70, 142 142, 202 104 S 312 58, 372 98 S 492 148, 560 92 S 660 52, 724 86" fill="none" filter="url(#soft-glow)" opacity="0.88" stroke="url(#line-cyan)" stroke-linecap="round" stroke-width="3"/>
  <path d="M52 130 C 114 98, 152 150, 216 125 S 320 88, 390 118 S 512 154, 584 108 S 674 82, 730 104" fill="none" opacity="0.36" stroke="#67e8f9" stroke-linecap="round" stroke-width="1.25"/>
  <g transform="translate(612 90)" opacity="0.84">
    <ellipse rx="92" ry="26" fill="none" stroke="#67e8f9" stroke-opacity="0.52" stroke-width="1.25"/>
    <ellipse rx="92" ry="26" fill="none" stroke="#a78bfa" stroke-opacity="0.42" stroke-width="1.1" transform="rotate(60)"/>
    <ellipse rx="92" ry="26" fill="none" stroke="#fbbf24" stroke-opacity="0.36" stroke-width="1.1" transform="rotate(-58)"/>
    <circle r="7" fill="#67e8f9" opacity="0.8"/>
    <circle r="26" fill="none" stroke="#67e8f9" stroke-opacity="0.36"/>
    <path d="M0-58v116M-58 0h116" stroke="#67e8f9" stroke-opacity="0.22" stroke-width="1"/>
  </g>
  <g filter="url(#soft-glow)">
    <circle cx="466" cy="56" r="4" fill="#67e8f9"/>
    <circle cx="529" cy="117" r="4" fill="#a78bfa"/>
    <circle cx="590" cy="56" r="4" fill="#fbbf24"/>
    <circle cx="466" cy="117" r="3" fill="#67e8f9" opacity="0.72"/>
    <circle cx="590" cy="117" r="3" fill="#67e8f9" opacity="0.72"/>
    <circle cx="529" cy="56" r="3" fill="#fbbf24" opacity="0.76"/>
  </g>
  <g opacity="0.8">
    <circle cx="466" cy="56" r="18" fill="url(#node-glow)"/>
    <circle cx="529" cy="117" r="22" fill="url(#node-glow)" opacity="0.7"/>
    <circle cx="590" cy="56" r="18" fill="url(#node-glow)" opacity="0.52"/>
  </g>
</svg>
