<svg xmlns="http://www.w3.org/2000/svg" viewBox="0 0 900 180" preserveAspectRatio="xMaxYMid meet" role="img" aria-labelledby="title-7b85b07d desc-7b85b07d">
  <title id="title-7b85b07d">Musical and emotional features individually and interactively predict perceived similarity of popular songs — peer-review visual strip</title>
  <desc id="desc-7b85b07d">Two songs represented by interacting musical and emotional feature vectors.</desc>

  <defs>
    <linearGradient id="fade-7b85b07d" x1="0" x2="1"><stop offset="0%" stop-color="#A78BFA" stop-opacity="0"/><stop offset="36%" stop-color="#A78BFA" stop-opacity=".06"/><stop offset="100%" stop-color="#56D8FF" stop-opacity=".24"/></linearGradient>
    <radialGradient id="glow-7b85b07d" cx="76%" cy="50%" r="60%"><stop offset="0%" stop-color="#56D8FF" stop-opacity=".28"/><stop offset="55%" stop-color="#A78BFA" stop-opacity=".08"/><stop offset="100%" stop-color="#A78BFA" stop-opacity="0"/></radialGradient>
    <filter id="soft-7b85b07d" x="-30%" y="-50%" width="160%" height="200%"><feGaussianBlur stdDeviation="2.1" result="blur"/><feMerge><feMergeNode in="blur"/><feMergeNode in="SourceGraphic"/></feMerge></filter>
    <pattern id="grid-7b85b07d" width="24" height="24" patternUnits="userSpaceOnUse"><path d="M24 0H0V24" fill="none" stroke="#A78BFA" stroke-opacity=".11" stroke-width="1"/></pattern>
    <pattern id="dots-7b85b07d" width="18" height="18" patternUnits="userSpaceOnUse"><circle cx="1.2" cy="1.2" r="1.2" fill="#56D8FF" opacity=".22"/></pattern>
    <marker id="arrow-7b85b07d" viewBox="0 0 8 8" refX="7" refY="4" markerWidth="6" markerHeight="6" orient="auto"><path d="M0 0L8 4L0 8Z" fill="#56D8FF" opacity=".75"/></marker>
  </defs>

  <rect x="470" y="18" width="390" height="144" fill="url(#dots-7b85b07d)" opacity=".28"/>
  <rect x="500" y="26" width="340" height="126" fill="url(#grid-7b85b07d)" opacity=".18"/>
  <ellipse cx="710" cy="90" rx="186" ry="72" fill="url(#glow-7b85b07d)" opacity=".9"/>
  <path d="M330 160H900V20C794 40 722 24 644 42C554 63 472 50 330 78Z" fill="url(#fade-7b85b07d)" opacity=".35"/>
  <g><rect x="488" y="87" width="7" height="41" rx="3" fill="#A78BFA" opacity=".65"/><rect x="502" y="72" width="7" height="56" rx="3" fill="#A78BFA" opacity=".65"/><rect x="516" y="91" width="7" height="37" rx="3" fill="#A78BFA" opacity=".65"/><rect x="530" y="84" width="7" height="44" rx="3" fill="#A78BFA" opacity=".65"/><rect x="544" y="99" width="7" height="29" rx="3" fill="#A78BFA" opacity=".65"/><rect x="558" y="84" width="7" height="44" rx="3" fill="#A78BFA" opacity=".65"/><rect x="572" y="93" width="7" height="35" rx="3" fill="#A78BFA" opacity=".65"/><rect x="586" y="104" width="7" height="24" rx="3" fill="#A78BFA" opacity=".65"/><rect x="738" y="70" width="7" height="58" rx="3" fill="#56D8FF" opacity=".65"/><rect x="752" y="106" width="7" height="22" rx="3" fill="#56D8FF" opacity=".65"/><rect x="766" y="55" width="7" height="73" rx="3" fill="#56D8FF" opacity=".65"/><rect x="780" y="65" width="7" height="63" rx="3" fill="#56D8FF" opacity=".65"/><rect x="794" y="88" width="7" height="40" rx="3" fill="#56D8FF" opacity=".65"/><rect x="808" y="73" width="7" height="55" rx="3" fill="#56D8FF" opacity=".65"/><rect x="822" y="66" width="7" height="62" rx="3" fill="#56D8FF" opacity=".65"/><rect x="836" y="72" width="7" height="56" rx="3" fill="#56D8FF" opacity=".65"/><g stroke="#56D8FF" stroke-opacity=".35"><path d="M491 87L741 70"/><path d="M505 72L755 106"/><path d="M519 91L769 55"/><path d="M533 84L783 65"/><path d="M547 99L797 88"/><path d="M561 84L811 73"/><path d="M575 93L825 66"/><path d="M589 104L839 72"/></g><circle cx="652" cy="88" r="28" fill="none" stroke="#A78BFA"/><path d="M638 88h28M652 74v28" stroke="#A78BFA"/></g>
</svg>
