<svg xmlns="http://www.w3.org/2000/svg" viewBox="0 0 900 180" preserveAspectRatio="xMaxYMid meet" role="img" aria-labelledby="title-4a87c01a desc-4a87c01a">
  <title id="title-4a87c01a">New Insights into Laryngeal Articulation and Breathing Control of Trumpeters: Biomedical Signals and Auditory Perception — peer-review visual strip</title>
  <desc id="desc-4a87c01a">Trumpet airflow, laryngeal control, breathing signals, and auditory output.</desc>

  <defs>
    <linearGradient id="fade-4a87c01a" x1="0" x2="1"><stop offset="0%" stop-color="#56D8FF" stop-opacity="0"/><stop offset="36%" stop-color="#56D8FF" stop-opacity=".06"/><stop offset="100%" stop-color="#34D399" stop-opacity=".24"/></linearGradient>
    <radialGradient id="glow-4a87c01a" cx="76%" cy="50%" r="60%"><stop offset="0%" stop-color="#34D399" stop-opacity=".28"/><stop offset="55%" stop-color="#56D8FF" stop-opacity=".08"/><stop offset="100%" stop-color="#56D8FF" stop-opacity="0"/></radialGradient>
    <filter id="soft-4a87c01a" x="-30%" y="-50%" width="160%" height="200%"><feGaussianBlur stdDeviation="2.1" result="blur"/><feMerge><feMergeNode in="blur"/><feMergeNode in="SourceGraphic"/></feMerge></filter>
    <pattern id="grid-4a87c01a" width="24" height="24" patternUnits="userSpaceOnUse"><path d="M24 0H0V24" fill="none" stroke="#56D8FF" stroke-opacity=".11" stroke-width="1"/></pattern>
    <pattern id="dots-4a87c01a" width="18" height="18" patternUnits="userSpaceOnUse"><circle cx="1.2" cy="1.2" r="1.2" fill="#34D399" opacity=".22"/></pattern>
    <marker id="arrow-4a87c01a" viewBox="0 0 8 8" refX="7" refY="4" markerWidth="6" markerHeight="6" orient="auto"><path d="M0 0L8 4L0 8Z" fill="#34D399" opacity=".75"/></marker>
  </defs>

  <rect x="470" y="18" width="390" height="144" fill="url(#dots-4a87c01a)" opacity=".28"/>
  <rect x="500" y="26" width="340" height="126" fill="url(#grid-4a87c01a)" opacity=".18"/>
  <ellipse cx="710" cy="90" rx="186" ry="72" fill="url(#glow-4a87c01a)" opacity=".9"/>
  <path d="M330 160H900V20C794 40 722 24 644 42C554 63 472 50 330 78Z" fill="url(#fade-4a87c01a)" opacity=".35"/>
  <g><path d="M508 92h146l40-26v52l-40-26M548 92v38M574 92v28M600 92v38" fill="none" stroke="#56D8FF" stroke-width="2"/><path d="M694 66C734 42 780 42 828 66M694 92C742 72 788 74 842 96M694 118C740 110 786 116 830 136" fill="none" stroke="#34D399"/><path d="M486 58C508 46 526 54 536 72M486 126C508 138 526 130 536 112" fill="none" stroke="#34D399"/><path d="M754 48C762 62 762 74 754 88C746 102 746 116 754 132" fill="none" stroke="#56D8FF" stroke-width="3"/></g>
</svg>
